<?xml version="1.0" encoding="utf-8"?>
<!-- Generator: Adobe Illustrator 19.2.1, SVG Export Plug-In . SVG Version: 6.00 Build 0)  -->
<svg version="1.1" id="Layer_1" xmlns="http://www.w3.org/2000/svg" xmlns:xlink="http://www.w3.org/1999/xlink" x="0px" y="0px"
	 viewBox="0 0 40 40" style="enable-background:new 0 0 40 40;" xml:space="preserve">
<style type="text/css">
	.st0{fill:#999999;}
</style>
<path class="st0" d="M20.2,37.3c4.2,0,7.5-1.1,10.6-3L30,33c-3,1.8-5.8,2.7-9.8,2.7c-9.5,0-16.2-7-16.2-15.9C4,11,10.9,3.9,19.9,3.9
	c9,0,15.8,6.8,15.8,14.3c0,5.3-2.2,8.2-5.1,8.2c-1.8,0-2.9-1.1-2.9-2.5c0-0.3,0-0.8,0.1-1.2l1.9-10.8L25,11l-0.4,2.1
	c-1.1-1.5-2.8-2.7-5.5-2.7c-4.7,0-9,4.4-9,10.1c0,4.8,3.2,7.7,7.3,7.7c2.6,0,4.6-1.2,5.9-2.4c1,1.2,2.9,2.4,6.1,2.4
	c4.4,0,8-3.4,8-10.1c0-8.2-7.6-15.9-17.5-15.9s-17.5,8-17.5,17.5C2.4,29.4,10,37.3,20.2,37.3z M18.7,24.1c-2.2,0-3.8-1.4-3.8-3.9
	c0-3.2,2.2-5.6,4.8-5.6c2.2,0,3.7,1.5,3.7,3.8C23.5,21.6,21.3,24.1,18.7,24.1z"/>
</svg>
