<?xml version="1.0" encoding="utf-8"?>
<!-- Generator: Adobe Illustrator 19.2.1, SVG Export Plug-In . SVG Version: 6.00 Build 0)  -->
<svg version="1.1" id="Layer_1" xmlns="http://www.w3.org/2000/svg" xmlns:xlink="http://www.w3.org/1999/xlink" x="0px" y="0px"
	 viewBox="0 0 40 40" style="enable-background:new 0 0 40 40;" xml:space="preserve">
<style type="text/css">
	.st0{fill:#999999;}
</style>
<g>
	<g>
		<path class="st0" d="M3.8,35.5H11V14.9H3.8V35.5z M27.7,14.2c-3,0-4.6,1-6.5,3.4v-2.8H14v20.6h7.2V24.3c0-2.4,1.1-4.7,3.8-4.7
			c2.7,0,3.3,2.3,3.3,4.6v11.3h7.2V23.8C35.5,15.6,30.7,14.2,27.7,14.2z M7.4,4.5c-2.2,0-4,1.6-4,3.6c0,2,1.8,3.6,4,3.6
			c2.2,0,4-1.6,4-3.6C11.4,6.1,9.6,4.5,7.4,4.5z"/>
	</g>
</g>
</svg>
