<?xml version="1.0" encoding="utf-8"?>
<!-- Generator: Adobe Illustrator 19.2.1, SVG Export Plug-In . SVG Version: 6.00 Build 0)  -->
<svg version="1.1" id="Layer_1" xmlns="http://www.w3.org/2000/svg" xmlns:xlink="http://www.w3.org/1999/xlink" x="0px" y="0px"
	 viewBox="0 0 40 40" style="enable-background:new 0 0 40 40;" xml:space="preserve">
<style type="text/css">
	.st0{fill:#999999;}
</style>
<path class="st0" d="M36.2,9.2c-0.6,0.3-2.2,0.9-3.7,1.1c1-0.5,2.5-2.3,2.8-3.7c-1,0.6-3.1,1.5-4.2,1.5c0,0,0,0,0,0
	c-1.2-1.3-3-2.1-4.9-2.1c-3.7,0-6.8,3.1-6.8,6.8c0,0.5,0.1,1,0.2,1.5h0C14.6,14.2,9,11.7,5.7,7.3c-2,3.6-0.3,7.6,2,9
	c-0.8,0.1-2.3-0.1-2.9-0.8c0,2.4,1.1,5.5,5.2,6.7c-0.8,0.4-2.2,0.3-2.8,0.2c0.2,2,3,4.6,6,4.6c-1.1,1.3-5.2,3.6-9.7,2.8
	c3.1,1.9,6.7,3,10.6,3C25,32.9,33.4,24,33,13c0,0,0,0,0,0c0,0,0-0.1,0-0.1c0,0,0-0.1,0-0.1C34,12,35.3,10.8,36.2,9.2z"/>
</svg>
